<?xml version="1.0" encoding="utf-8"?>
<!-- Generator: Adobe Illustrator 26.5.0, SVG Export Plug-In . SVG Version: 6.00 Build 0)  -->
<svg version="1.1" id="Calque_1" xmlns="http://www.w3.org/2000/svg" xmlns:xlink="http://www.w3.org/1999/xlink" x="0px" y="0px"
	 viewBox="0 0 24 24" style="enable-background:new 0 0 24 24;" xml:space="preserve">
<g id="Ball-Hide">
	<g>
		<path d="M12,21.9c-5.5,0-9.9-4.4-9.9-9.9S6.5,2.1,12,2.1s9.9,4.4,9.9,9.9l0,0C21.9,17.5,17.5,21.9,12,21.9z M12,3.1
			c-4.9,0-8.9,4-8.9,8.9s4,8.9,8.9,8.9s8.9-4,8.9-8.9l0,0C20.9,7.1,16.9,3.1,12,3.1z"/>
		<path d="M1.1,23.7c-0.4,0-0.7-0.3-0.7-0.7c0-0.2,0.1-0.4,0.2-0.5l12.2-12.3c0.3-0.3,0.7-0.3,1,0s0.3,0.7,0,1L1.6,23.5
			C1.4,23.6,1.2,23.7,1.1,23.7z"/>
		<path d="M10.8,14c-0.4,0-0.7-0.3-0.7-0.7c0-0.2,0.1-0.4,0.2-0.5L22.5,0.5c0.3-0.3,0.7-0.3,1,0s0.3,0.7,0,1L11.3,13.8
			C11.1,13.9,10.9,14,10.8,14z"/>
		<path d="M13,5.2c2.1,0.5,3.8,1.7,4.9,3.6c0.2,0.3,0.2,0.5,0,0.7c-0.3,0.2-0.5,0-0.7-0.3c-1.1-1.7-2.6-2.8-4.5-3.2
			c-0.3-0.1-0.6-0.2-0.5-0.6C12.2,5.2,12.5,5.1,13,5.2z"/>
	</g>
</g>
</svg>
