<?xml version="1.0" standalone="no"?>
<!DOCTYPE svg PUBLIC "-//W3C//DTD SVG 20010904//EN"
 "http://www.w3.org/TR/2001/REC-SVG-20010904/DTD/svg10.dtd">
<svg version="1.0" xmlns="http://www.w3.org/2000/svg"
 width="2048.000000pt" height="2048.000000pt" viewBox="0 0 2048.000000 2048.000000"
 preserveAspectRatio="xMidYMid meet">

<g transform="translate(0.000000,2048.000000) scale(0.100000,-0.100000)"
fill="#000000" stroke="none">
<path d="M4202 13777 l-3522 -3522 0 -1423 0 -1422 3520 0 3520 0 2 -1762 3
-1763 1758 -3 1757 -2 0 3190 0 3190 -3517 0 -3518 0 2310 2313 c1271 1271
2852 2855 3515 3520 l1205 1207 -1755 0 -1755 0 -3523 -3523z"/>
<path d="M12760 15543 l0 -1758 911 910 c500 501 1289 1291 1751 1758 l840
847 -1751 0 -1751 0 0 -1757z"/>
<path d="M16270 15537 l0 -1762 -1755 -1755 -1755 -1755 0 -1762 0 -1763 1755
0 1755 0 0 1758 0 1758 1765 1764 1765 1764 0 1758 0 1758 -1765 0 -1765 0 0
-1763z"/>
<path d="M18033 8501 c-964 -962 -1753 -1751 -1753 -1755 0 -3 791 -5 1758 -4
l1757 3 3 1753 c1 963 -1 1752 -5 1751 -5 0 -797 -787 -1760 -1748z"/>
</g>
</svg>
