<?xml version="1.0" standalone="no"?>
<!DOCTYPE svg PUBLIC "-//W3C//DTD SVG 20010904//EN"
 "http://www.w3.org/TR/2001/REC-SVG-20010904/DTD/svg10.dtd">
<svg version="1.0" xmlns="http://www.w3.org/2000/svg"
 width="2000.000000pt" height="1500.000000pt" viewBox="0 0 2000.000000 1500.000000"
 preserveAspectRatio="xMidYMid meet">

<g transform="translate(0.000000,1500.000000) scale(0.100000,-0.100000)"
fill="#000000" stroke="none">
<path d="M9815 12003 c-353 -129 -546 -216 -684 -308 -45 -30 -84 -55 -85 -55
-2 0 -1 40 2 90 4 77 2 90 -12 96 -32 12 -63 -7 -178 -115 -166 -155 -181
-163 -288 -147 -182 26 -393 -105 -486 -301 -38 -81 -40 -82 -81 -89 -24 -3
-103 0 -176 7 -171 16 -200 9 -300 -74 -201 -168 -744 -697 -783 -763 -13 -23
-38 -80 -54 -128 -16 -47 -41 -109 -57 -138 -29 -54 -163 -193 -454 -473 -175
-167 -255 -268 -328 -415 -101 -202 -158 -427 -231 -910 -23 -151 -47 -305
-54 -342 l-13 -67 85 -167 c144 -286 234 -535 281 -779 26 -134 26 -167 1
-190 -15 -13 -30 -16 -60 -12 l-40 5 0 -93 c0 -132 17 -236 52 -324 16 -42
114 -267 218 -501 206 -467 277 -639 356 -865 50 -146 53 -150 84 -156 39 -8
92 -58 114 -107 8 -21 26 -86 40 -147 47 -215 117 -356 236 -475 130 -130 235
-170 452 -170 202 0 277 -21 382 -109 111 -91 278 -151 426 -153 l85 -1 277
-142 c152 -79 324 -173 381 -209 58 -36 115 -66 126 -66 12 0 31 10 42 21 30
30 41 9 35 -64 l-6 -59 38 6 c469 74 980 72 1266 -6 68 -18 86 -20 123 -10 62
17 180 15 244 -4 52 -15 180 -75 244 -114 36 -21 106 -34 135 -25 19 6 21 13
18 53 l-3 47 60 24 c81 32 302 77 337 68 18 -5 47 -31 78 -71 27 -35 64 -71
82 -79 l33 -16 7 83 c3 46 11 93 17 105 21 39 65 52 164 50 l92 -2 -3 53 c-6
95 3 116 90 209 179 190 275 283 321 313 l49 31 65 -71 c66 -73 88 -83 77 -34
-14 69 -41 120 -90 174 -57 61 -65 81 -36 93 151 62 235 70 296 29 l38 -26
-17 25 c-23 35 -16 76 18 101 23 17 49 22 128 27 78 5 106 10 127 26 39 29 62
74 72 142 8 57 13 65 132 208 246 295 423 577 588 932 71 155 174 410 168 416
-7 7 -163 -131 -204 -180 -21 -26 -66 -86 -99 -134 -70 -100 -100 -120 -145
-97 -16 8 -32 11 -34 8 -2 -4 -16 -46 -30 -94 -15 -49 -28 -88 -31 -88 -2 0
-1 35 2 78 l6 77 -44 -36 c-362 -292 -993 -755 -1399 -1024 -268 -178 -320
-204 -374 -181 -31 13 -70 52 -79 79 -2 7 -26 -8 -58 -37 -69 -62 -95 -72
-121 -49 -14 13 -19 28 -16 53 l3 36 -72 2 c-67 2 -73 0 -92 -24 -12 -15 -21
-32 -21 -39 0 -7 -7 -19 -16 -26 -13 -11 -17 -11 -25 2 -4 9 -17 27 -28 40
l-19 23 -12 -78 c-13 -77 -13 -77 -26 -47 -7 17 -17 31 -23 31 -9 0 -48 -43
-66 -75 -9 -15 -16 -9 -52 46 -44 69 -103 131 -88 94 34 -88 27 -148 -13 -111
-19 16 -20 15 -26 -44 -4 -33 -11 -60 -17 -60 -5 0 -38 -27 -74 -60 -70 -65
-73 -66 -195 -75 -102 -8 -284 -38 -386 -64 -73 -19 -75 -19 -147 0 -243 64
-635 128 -942 154 -213 18 -313 35 -438 75 -89 29 -349 152 -395 188 l-23 18
38 24 c41 27 79 91 69 117 -6 14 -10 13 -34 -9 -32 -30 -45 -35 -136 -54 l-69
-14 -116 112 c-64 62 -276 262 -471 444 -482 450 -833 807 -927 944 -47 69
-99 178 -183 385 -108 263 -122 295 -130 295 -4 0 -15 -9 -25 -20 -10 -11 -26
-20 -36 -20 -24 0 -66 53 -80 101 -10 33 -10 45 4 74 18 37 48 46 88 25 11 -6
19 -7 19 -1 0 5 -21 150 -46 322 -29 199 -44 331 -40 362 3 27 28 97 60 165
l54 117 61 565 c72 661 99 804 196 1044 157 389 397 711 840 1125 438 409 372
360 858 645 533 315 738 410 1053 490 175 45 295 58 589 65 267 5 293 8 325
26 59 35 74 74 78 201 l4 112 -44 -5 c-53 -6 -81 6 -161 72 -32 25 -81 56
-110 69 l-52 23 -120 -44z m-3517 -5756 c12 -13 47 -79 77 -147 30 -68 62
-134 71 -148 22 -33 11 -38 -30 -13 -58 36 -84 75 -91 136 -6 46 -19 78 -73
188 -9 17 26 5 46 -16z m-95 -77 c15 -46 26 -87 25 -91 -5 -13 -108 120 -108
139 0 10 6 24 12 30 26 26 43 7 71 -78z"/>
<path d="M11307 11751 l-139 -6 -31 -36 c-18 -19 -36 -43 -42 -53 -9 -15 -14
-16 -40 -5 -38 15 -232 14 -286 -2 -50 -16 -106 -72 -120 -122 -51 -191 238
-395 607 -427 l114 -10 145 -85 c297 -174 514 -320 1103 -742 196 -141 372
-262 391 -270 43 -18 94 -7 192 42 38 19 73 35 79 35 6 0 10 -37 10 -96 0 -64
7 -122 21 -176 26 -105 105 -302 141 -356 27 -39 120 -122 137 -122 22 0 106
-99 134 -158 29 -62 32 -75 32 -167 -1 -66 -7 -121 -19 -161 l-18 -62 51 -99
c93 -181 205 -328 306 -403 l53 -39 4 -65 c6 -104 49 -134 107 -74 37 38 37
42 15 -130 -19 -140 -22 -419 -7 -467 9 -27 11 -21 17 50 25 281 74 559 131
733 19 58 32 108 30 110 -9 10 -42 -21 -79 -73 -23 -32 -50 -61 -62 -66 -21
-7 -21 -5 -27 180 -8 215 -23 376 -71 754 l-34 268 -448 717 c-246 394 -468
742 -493 772 -24 30 -83 92 -129 138 -258 253 -573 441 -955 571 -180 61 -293
88 -432 101 -113 10 -151 10 -388 1z"/>
<path d="M10820 7695 l0 -114 -35 21 c-45 26 -137 22 -178 -7 -102 -74 -104
-306 -4 -379 46 -34 124 -29 181 11 l45 32 3 -27 c2 -22 9 -28 36 -30 l32 -3
0 305 0 306 -40 0 -40 0 0 -115z m-19 -151 c18 -16 19 -29 17 -133 l-3 -115
-34 -23 c-67 -46 -147 -21 -171 53 -7 20 -10 65 -8 100 4 68 25 108 69 132 32
17 104 9 130 -14z"/>
<path d="M7419 7734 c-5 -14 -9 -33 -9 -43 0 -57 -12 -79 -46 -86 -25 -4 -34
-11 -34 -25 0 -16 7 -20 35 -20 l35 0 0 -156 0 -156 29 -29 c34 -34 83 -39
137 -13 38 18 39 21 19 48 -12 16 -18 17 -27 8 -15 -15 -61 -15 -76 0 -8 8
-12 57 -12 155 l0 143 60 0 c57 0 60 1 60 25 0 24 -3 25 -60 25 l-59 0 -3 72
c-3 60 -6 72 -21 74 -11 1 -22 -7 -28 -22z"/>
<path d="M7690 7411 l0 -211 35 0 35 0 0 136 c0 181 21 218 121 215 42 0 48 2
53 25 10 37 0 44 -55 44 -44 0 -53 -4 -88 -41 l-40 -40 -3 38 c-3 33 -7 38
-30 41 l-28 3 0 -210z"/>
<path d="M8062 7599 c-50 -25 -61 -44 -40 -65 13 -13 20 -12 63 10 82 44 135
28 155 -45 15 -54 8 -69 -33 -69 -45 0 -142 -26 -174 -47 -62 -41 -62 -135 0
-174 45 -28 122 -22 176 14 l41 27 6 -25 c5 -19 13 -25 33 -25 l26 0 -5 176
-5 176 -37 34 c-35 31 -43 34 -100 34 -44 0 -76 -6 -106 -21z m186 -252 c4
-43 -13 -69 -60 -93 -61 -31 -138 -5 -138 46 0 31 43 68 86 75 22 3 46 8 54
10 42 9 55 0 58 -38z"/>
<path d="M8430 7410 l0 -210 35 0 35 0 0 154 0 155 35 26 c19 15 52 29 74 32
35 5 44 2 71 -25 l30 -30 0 -156 0 -156 35 0 35 0 0 155 c0 171 -8 206 -55
243 -44 35 -130 31 -183 -7 l-40 -30 -11 30 c-7 22 -16 29 -35 29 l-26 0 0
-210z"/>
<path d="M8932 7600 c-39 -24 -66 -80 -57 -120 9 -39 42 -67 110 -90 82 -28
105 -45 105 -78 0 -33 -8 -45 -37 -61 -32 -16 -74 -14 -118 9 -36 18 -40 19
-57 4 -22 -21 -16 -32 36 -55 85 -39 198 -11 230 55 39 82 9 133 -99 172 -106
38 -129 70 -83 114 27 25 86 27 130 4 27 -14 32 -14 45 -1 52 51 -130 92 -205
47z"/>
<path d="M9325 7596 c-140 -84 -116 -353 36 -396 65 -19 147 -3 190 36 18 16
18 19 3 35 -15 17 -17 17 -47 -2 -39 -23 -114 -25 -145 -3 -36 25 -55 73 -56
139 -1 136 80 194 202 144 28 -12 34 -12 42 1 14 22 8 31 -30 52 -52 27 -144
24 -195 -6z"/>
<path d="M9715 7596 c-63 -38 -90 -95 -89 -186 0 -93 26 -148 86 -187 36 -24
52 -28 112 -28 104 1 182 45 145 82 -8 8 -22 6 -53 -8 -22 -10 -60 -19 -84
-19 -79 0 -121 38 -137 123 l-7 37 151 0 151 0 0 38 c0 51 -37 122 -79 149
-49 33 -141 32 -196 -1z m175 -53 c16 -16 33 -43 36 -60 l7 -33 -117 0 -116 0
0 26 c0 16 13 39 34 60 29 29 41 34 80 34 36 0 52 -6 76 -27z"/>
<path d="M10090 7410 l0 -210 35 0 35 0 0 154 0 154 30 26 c40 33 96 44 129
25 44 -25 51 -53 51 -211 l0 -148 35 0 35 0 -1 153 c0 90 -5 166 -12 187 -17
49 -67 80 -129 80 -52 0 -79 -10 -115 -43 -24 -21 -22 -23 -38 28 -2 8 -16 15
-30 15 l-25 0 0 -210z"/>
<path d="M11105 7606 c-109 -47 -146 -224 -71 -337 56 -84 191 -102 295 -39
32 20 32 22 16 40 -17 19 -18 19 -56 0 -45 -24 -118 -26 -158 -5 -31 15 -57
62 -63 110 l-3 30 149 3 148 3 -4 55 c-5 61 -26 96 -78 132 -38 26 -125 30
-175 8z m151 -54 c26 -21 44 -54 44 -81 0 -20 -5 -21 -115 -21 -97 0 -115 2
-115 15 0 25 28 72 52 89 30 21 107 20 134 -2z"/>
<path d="M11460 7410 l0 -210 35 0 35 0 0 154 0 155 35 26 c19 15 52 29 74 32
35 5 44 2 71 -25 l30 -30 0 -156 0 -156 35 0 35 0 0 155 c0 172 -8 206 -56
244 -41 33 -136 27 -186 -11 l-34 -26 -11 29 c-9 22 -18 29 -37 29 l-26 0 0
-210z"/>
<path d="M11998 7600 c-132 -70 -132 -317 1 -387 67 -35 169 -25 222 23 18 16
18 18 3 36 -16 17 -18 17 -49 -2 -75 -46 -172 -12 -195 68 -43 157 58 275 184
215 29 -13 38 -14 51 -3 23 19 19 28 -25 50 -52 26 -141 26 -192 0z"/>
<path d="M12388 7600 c-113 -61 -134 -251 -38 -351 68 -72 203 -79 277 -14 26
22 27 25 12 40 -15 15 -19 15 -55 -4 -53 -29 -132 -28 -169 1 -30 24 -55 74
-55 113 l0 25 151 0 152 0 -6 51 c-7 59 -30 103 -70 133 -40 30 -149 33 -199
6z m167 -52 c25 -23 49 -81 37 -92 -7 -7 -232 -8 -232 -1 0 21 32 75 55 93 38
30 105 30 140 0z"/>
</g>
</svg>
