<svg width="136" height="136" viewBox="0 0 136 136" fill="none" xmlns="http://www.w3.org/2000/svg">
<g filter="url(#filter0_d_196_40)">
<path d="M46.3038 45.352C45.9198 43.696 45.7278 42.388 45.7278 41.428C45.7278 40.468 45.7638 39.592 45.8358 38.8H66.7518C66.8478 39.952 66.8958 40.732 66.8958 41.14C66.8958 42.172 66.7038 43.576 66.3198 45.352C65.6238 45.544 64.4838 45.64 62.8998 45.64L62.0718 42.004H59.0118C58.9878 42.916 58.8798 49.096 58.6878 60.544L61.2798 60.868C61.2798 61.972 61.0038 63.016 60.4518 64H51.7038L51.3798 62.02C53.0358 61.396 54.0798 61.048 54.5118 60.976C54.5118 60.88 54.3678 54.568 54.0798 42.04H50.5158L49.7238 45.568C48.3078 45.568 47.1678 45.496 46.3038 45.352ZM77.4832 38.8C81.6832 38.8 84.4672 39.4 85.8352 40.6C87.0832 41.68 87.7072 43.348 87.7072 45.604C87.7072 49.108 85.8832 51.496 82.2352 52.768L87.4192 60.58L90.5152 60.904C90.5152 61.936 90.2392 62.968 89.6872 64H84.4672L77.4112 53.236H76.2592L76.1512 60.58L78.7792 60.868C78.7792 61.852 78.5032 62.896 77.9512 64H69.0592L68.7352 62.02C70.1752 61.444 71.1832 61.096 71.7592 60.976C71.7112 58.024 71.6512 54.46 71.5792 50.284C71.5072 46.108 71.4592 43.312 71.4352 41.896L68.4472 40.996C68.4712 40.444 68.5792 39.712 68.7712 38.8H77.4832ZM80.3272 42.652C79.5832 42.484 78.5872 42.4 77.3392 42.4H76.3312C76.2832 45.712 76.2592 48.196 76.2592 49.852L78.0232 49.816C79.4392 49.792 80.5552 49.504 81.3712 48.952C82.2112 48.376 82.6312 47.272 82.6312 45.64C82.6312 44.008 81.8632 43.012 80.3272 42.652Z" fill="white"/>
</g>
<defs>
<filter id="filter0_d_196_40" x="0" y="0" width="136" height="136" filterUnits="userSpaceOnUse" color-interpolation-filters="sRGB">
<feFlood flood-opacity="0" result="BackgroundImageFix"/>
<feColorMatrix in="SourceAlpha" type="matrix" values="0 0 0 0 0 0 0 0 0 0 0 0 0 0 0 0 0 0 127 0" result="hardAlpha"/>
<feOffset dy="4"/>
<feGaussianBlur stdDeviation="2"/>
<feComposite in2="hardAlpha" operator="out"/>
<feColorMatrix type="matrix" values="0 0 0 0 0 0 0 0 0 0 0 0 0 0 0 0 0 0 0.25 0"/>
<feBlend mode="normal" in2="BackgroundImageFix" result="effect1_dropShadow_196_40"/>
<feBlend mode="normal" in="SourceGraphic" in2="effect1_dropShadow_196_40" result="shape"/>
</filter>
</defs>
</svg>
