<svg version="1.1" xmlns="http://www.w3.org/2000/svg" viewBox="0 0 549 402.5" width="549" height="402.5">
  <!-- svg-source:excalidraw -->
  
  <defs>
    <style class="style-fonts">
      @font-face {
        font-family: "Virgil";
        src: url("https://excalidraw.com/Virgil.woff2");
      }
      @font-face {
        font-family: "Cascadia";
        src: url("https://excalidraw.com/Cascadia.woff2");
      }
    </style>
  </defs>
  <rect x="0" y="0" width="549" height="402.5" fill="#ffffff"></rect><g stroke-linecap="round" transform="translate(31.5 46.5) rotate(0 4 173)"><path d="M2 0 M2 0 C3.24 0, 4.48 0, 6 0 M2 0 C2.8 0, 3.61 0, 6 0 M6 0 C7.33 0, 8 0.67, 8 2 M6 0 C7.33 0, 8 0.67, 8 2 M8 2 C8 76.51, 8 151.02, 8 344 M8 2 C8 77.72, 8 153.45, 8 344 M8 344 C8 345.33, 7.33 346, 6 346 M8 344 C8 345.33, 7.33 346, 6 346 M6 346 C5.14 346, 4.28 346, 2 346 M6 346 C4.9 346, 3.79 346, 2 346 M2 346 C0.67 346, 0 345.33, 0 344 M2 346 C0.67 346, 0 345.33, 0 344 M0 344 C0 272.5, 0 200.99, 0 2 M0 344 C0 259.34, 0 174.68, 0 2 M0 2 C0 0.67, 0.67 0, 2 0 M0 2 C0 0.67, 0.67 0, 2 0" stroke="#000000" stroke-width="1" fill="none"></path></g><g stroke-linecap="round" transform="translate(503.5 44.5) rotate(0 4 173)"><path d="M2 0 L6 0 L7.5 0.5 L8 2 L8 344 L7.5 345.5 L6 346 L2 346 L0.5 345.5 L0 344 L0 2 L0.5 0.5 L2 0" stroke="none" stroke-width="0" fill="#0000"></path><path d="M2 0 M2 0 C3.15 0, 4.29 0, 6 0 M2 0 C3.15 0, 4.29 0, 6 0 M6 0 C7.33 0, 8 0.67, 8 2 M6 0 C7.33 0, 8 0.67, 8 2 M8 2 C8 135.11, 8 268.22, 8 344 M8 2 C8 71.89, 8 141.77, 8 344 M8 344 C8 345.33, 7.33 346, 6 346 M8 344 C8 345.33, 7.33 346, 6 346 M6 346 C4.58 346, 3.15 346, 2 346 M6 346 C4.55 346, 3.1 346, 2 346 M2 346 C0.67 346, 0 345.33, 0 344 M2 346 C0.67 346, 0 345.33, 0 344 M0 344 C0 240.06, 0 136.12, 0 2 M0 344 C0 220.91, 0 97.81, 0 2 M0 2 C0 0.67, 0.67 0, 2 0 M0 2 C0 0.67, 0.67 0, 2 0" stroke="#000000" stroke-width="1" fill="none"></path></g><g transform="translate(478 10) rotate(0 30.5 11.5)"><text x="30.5" y="18" font-family="Helvetica, Segoe UI Emoji" font-size="20px" fill="#000000" text-anchor="middle" style="white-space: pre;" direction="ltr">Server</text></g><g transform="translate(10 11) rotate(0 26.5 11.5)"><text x="26.5" y="18" font-family="Helvetica, Segoe UI Emoji" font-size="20px" fill="#000000" text-anchor="middle" style="white-space: pre;" direction="ltr">Client</text></g><g stroke-linecap="round"><g transform="translate(49.5 74.5) rotate(0 222.5 0)"><path d="M0 0 C163.15 0, 326.29 0, 445 0 M0 0 C104.56 0, 209.12 0, 445 0" stroke="#c92a2a" stroke-width="1" fill="none"></path></g><g transform="translate(49.5 74.5) rotate(0 222.5 0)"><path d="M445 0 L431.41 6.34 L431.41 -6.34 L445 0" stroke="none" stroke-width="0" fill="#c92a2a" fill-rule="evenodd"></path><path d="M445 0 C440.02 2.32, 435.03 4.65, 431.41 6.34 M445 0 C441.81 1.49, 438.61 2.98, 431.41 6.34 M431.41 6.34 C431.41 2.05, 431.41 -2.25, 431.41 -6.34 M431.41 6.34 C431.41 3.3, 431.41 0.26, 431.41 -6.34 M431.41 -6.34 C435.34 -4.5, 439.28 -2.67, 445 0 M431.41 -6.34 C434.56 -4.87, 437.71 -3.4, 445 0 M445 0 C445 0, 445 0, 445 0 M445 0 C445 0, 445 0, 445 0" stroke="#c92a2a" stroke-width="1" fill="none"></path></g></g><mask></mask><g stroke-linecap="round"><g transform="translate(490 124) rotate(0 -219.5 0.25)"><path d="M0 0 C-55.52 0.13, -111.05 0.25, -220.5 0.5 M0 0 C-87.2 0.2, -174.4 0.4, -220.5 0.5 M-220.5 0.5 C-301.08 0.32, -381.67 0.13, -439 0 M-220.5 0.5 C-271.56 0.38, -322.62 0.27, -439 0" stroke="#c92a2a" stroke-width="1" fill="none"></path></g><g transform="translate(490 124) rotate(0 -219.5 0.25)"><path d="M-439 0 L-425.39 -6.31 L-425.42 6.37 L-439 0" stroke="none" stroke-width="0" fill="#c92a2a" fill-rule="evenodd"></path><path d="M-439 0 C-435.57 -1.59, -432.15 -3.18, -425.39 -6.31 M-439 0 C-433.62 -2.49, -428.24 -4.99, -425.39 -6.31 M-425.39 -6.31 C-425.4 -1.63, -425.41 3.04, -425.42 6.37 M-425.39 -6.31 C-425.4 -3.35, -425.4 -0.38, -425.42 6.37 M-425.42 6.37 C-429.44 4.49, -433.45 2.6, -439 0 M-425.42 6.37 C-429.5 4.46, -433.59 2.54, -439 0 M-439 0 C-439 0, -439 0, -439 0 M-439 0 C-439 0, -439 0, -439 0" stroke="#c92a2a" stroke-width="1" fill="none"></path></g></g><mask></mask><g transform="translate(188.5 87.5) rotate(0 87 11.5)"><text x="87" y="18" font-family="Helvetica, Segoe UI Emoji" font-size="20px" fill="#c92a2a" text-anchor="middle" style="white-space: pre;" direction="ltr">Handshake (HTTP)</text></g><g stroke-linecap="round"><g transform="translate(52 217) rotate(0 220.5 0)"><path d="M0 0 C138.89 0, 277.78 0, 441 0 M0 0 C131.13 0, 262.26 0, 441 0" stroke="#5f3dc4" stroke-width="1" fill="none"></path></g><g transform="translate(52 217) rotate(0 220.5 0)"><path d="M441 0 L427.41 6.34 L427.41 -6.34 L441 0" stroke="none" stroke-width="0" fill="#5f3dc4" fill-rule="evenodd"></path><path d="M441 0 C436.72 2, 432.44 3.99, 427.41 6.34 M441 0 C436.96 1.88, 432.92 3.77, 427.41 6.34 M427.41 6.34 C427.41 2.29, 427.41 -1.75, 427.41 -6.34 M427.41 6.34 C427.41 3.12, 427.41 -0.1, 427.41 -6.34 M427.41 -6.34 C430.59 -4.85, 433.78 -3.37, 441 0 M427.41 -6.34 C432.22 -4.09, 437.03 -1.85, 441 0 M441 0 C441 0, 441 0, 441 0 M441 0 C441 0, 441 0, 441 0" stroke="#5f3dc4" stroke-width="1" fill="none"></path></g></g><mask></mask><g stroke-linecap="round"><g transform="translate(481 217.25) rotate(0 -215.5 -0.5)"><path d="M0 0 C-58.43 -0.13, -116.87 -0.27, -217.5 -0.5 M0 0 C-71.5 -0.16, -143.01 -0.33, -217.5 -0.5 M-217.5 -0.5 C-284.05 -0.66, -350.61 -0.81, -431 -1 M-217.5 -0.5 C-284.48 -0.66, -351.47 -0.81, -431 -1" stroke="#5f3dc4" stroke-width="1" fill="none"></path></g><g transform="translate(481 217.25) rotate(0 -215.5 -0.5)"><path d="M-431 -1 L-417.39 -7.31 L-417.42 5.37 L-431 -1" stroke="none" stroke-width="0" fill="#5f3dc4" fill-rule="evenodd"></path><path d="M-431 -1 C-427.34 -2.69, -423.69 -4.39, -417.39 -7.31 M-431 -1 C-426.53 -3.07, -422.05 -5.15, -417.39 -7.31 M-417.39 -7.31 C-417.4 -3.36, -417.41 0.6, -417.42 5.37 M-417.39 -7.31 C-417.4 -3.33, -417.41 0.65, -417.42 5.37 M-417.42 5.37 C-420.76 3.8, -424.1 2.24, -431 -1 M-417.42 5.37 C-422.66 2.91, -427.9 0.45, -431 -1 M-431 -1 C-431 -1, -431 -1, -431 -1 M-431 -1 C-431 -1, -431 -1, -431 -1" stroke="#5f3dc4" stroke-width="1" fill="none"></path></g></g><mask></mask><g transform="translate(161.5 180.5) rotate(0 107 11.5)"><text x="107" y="18" font-family="Helvetica, Segoe UI Emoji" font-size="20px" fill="#5f3dc4" text-anchor="middle" style="white-space: pre;" direction="ltr">Bi-directional messages</text></g><g stroke-linecap="round"><g transform="translate(491 328.25) rotate(0 -220.5 0.25)"><path d="M0 0 C-46.68 0.11, -93.37 0.21, -220.5 0.5 M0 0 C-73.31 0.17, -146.62 0.33, -220.5 0.5 M-220.5 0.5 C-300.76 0.32, -381.02 0.14, -441 0 M-220.5 0.5 C-287.99 0.35, -355.48 0.19, -441 0" stroke="#0b7285" stroke-width="1" fill="none"></path></g><g transform="translate(491 328.25) rotate(0 -220.5 0.25)"><path d="M-441 0 L-427.39 -6.31 L-427.42 6.37 L-441 0" stroke="none" stroke-width="0" fill="#0b7285" fill-rule="evenodd"></path><path d="M-441 0 C-438.12 -1.34, -435.24 -2.67, -427.39 -6.31 M-441 0 C-436.48 -2.1, -431.95 -4.19, -427.39 -6.31 M-427.39 -6.31 C-427.4 -1.69, -427.41 2.92, -427.42 6.37 M-427.39 -6.31 C-427.4 -2.43, -427.41 1.45, -427.42 6.37 M-427.42 6.37 C-432.03 4.21, -436.64 2.05, -441 0 M-427.42 6.37 C-431.24 4.58, -435.07 2.78, -441 0 M-441 0 C-441 0, -441 0, -441 0 M-441 0 C-441 0, -441 0, -441 0" stroke="#0b7285" stroke-width="1" fill="none"></path></g></g><mask></mask><g stroke-linecap="round"><g transform="translate(70 329) rotate(0 210.5 0)"><path d="M0 0 C97.04 0, 194.09 0, 421 0 M0 0 C94.9 0, 189.79 0, 421 0" stroke="#0b7285" stroke-width="1" fill="none"></path></g><g transform="translate(70 329) rotate(0 210.5 0)"><path d="M421 0 L407.41 6.34 L407.41 -6.34 L421 0" stroke="none" stroke-width="0" fill="#0b7285" fill-rule="evenodd"></path><path d="M421 0 C417.87 1.46, 414.73 2.92, 407.41 6.34 M421 0 C417.94 1.43, 414.87 2.86, 407.41 6.34 M407.41 6.34 C407.41 2.84, 407.41 -0.66, 407.41 -6.34 M407.41 6.34 C407.41 1.59, 407.41 -3.17, 407.41 -6.34 M407.41 -6.34 C411.16 -4.59, 414.91 -2.84, 421 0 M407.41 -6.34 C410.59 -4.85, 413.78 -3.37, 421 0 M421 0 C421 0, 421 0, 421 0 M421 0 C421 0, 421 0, 421 0" stroke="#0b7285" stroke-width="1" fill="none"></path></g></g><mask></mask><g transform="translate(165.5 295.5) rotate(0 115 11.5)"><text x="115" y="18" font-family="Helvetica, Segoe UI Emoji" font-size="20px" fill="#0b7285" text-anchor="middle" style="white-space: pre;" direction="ltr">One sides closes channel</text></g><g transform="translate(164.5 222) rotate(0 121 10)"><text x="121" y="14" font-family="Virgil, Segoe UI Emoji" font-size="16px" fill="#5f3dc4" text-anchor="middle" style="white-space: pre;" direction="ltr">open and persistent connection</text></g><g transform="translate(197 333.5) rotate(0 67.5 10)"><text x="67.5" y="14" font-family="Virgil, Segoe UI Emoji" font-size="16px" fill="#0b7285" text-anchor="middle" style="white-space: pre;" direction="ltr">connection closed</text></g></svg>