<?xml version="1.0" encoding="utf-8"?>
<!-- Generator: Adobe Illustrator 26.5.0, SVG Export Plug-In . SVG Version: 6.00 Build 0)  -->
<svg version="1.1" id="Calque_1" xmlns="http://www.w3.org/2000/svg" xmlns:xlink="http://www.w3.org/1999/xlink" x="0px" y="0px"
	 viewBox="0 0 24 24" style="enable-background:new 0 0 24 24;" xml:space="preserve">
<g transform="matrix(1, 0, 0, 1, 27.009001, -39.238998)">
	<path d="M-5.3,51.5c0-0.7-0.1-1.3-0.2-1.9h-9.4v3.7h5.4c-0.2,1.2-0.9,2.3-2,3v2.5h3.2C-6.4,57-5.3,54.5-5.3,51.5z"/>
	<path d="M-14.8,61.2c2.7,0,4.9-0.9,6.6-2.4l-3.2-2.5c-0.9,0.6-2,1-3.4,1c-2.6,0-4.8-1.7-5.6-4.1h-3.3v2.6
		C-22,58.9-18.7,61.2-14.8,61.2z"/>
	<path d="M-20.4,53.1c-0.2-0.6-0.3-1.2-0.3-1.9c0-0.7,0.1-1.3,0.3-1.9v-2.6h-3.3c-0.7,1.3-1.1,2.8-1.1,4.5c0,1.6,0.4,3.1,1.1,4.5
		L-20.4,53.1z"/>
	<path d="M-14.8,45.2c1.5,0,2.8,0.5,3.8,1.5l2.8-2.8c-1.7-1.6-4-2.6-6.6-2.6c-3.9,0-7.2,2.2-8.9,5.5l3.3,2.6
		C-19.6,47-17.4,45.2-14.8,45.2z"/>
</g>
</svg>
