<?xml version="1.0" encoding="utf-8"?>
<!-- Generator: Adobe Illustrator 26.5.0, SVG Export Plug-In . SVG Version: 6.00 Build 0)  -->
<svg version="1.1" id="Calque_1" xmlns="http://www.w3.org/2000/svg" xmlns:xlink="http://www.w3.org/1999/xlink" x="0px" y="0px"
	 viewBox="0 0 24 24" style="enable-background:new 0 0 24 24;" xml:space="preserve">
<g id="User">
	<g>
		<path d="M15.7,21.9H4.8c-1.4,0-2.5-1.1-2.5-2.5v-0.8c0-4,3.6-7.2,7.9-7.2s7.9,3.2,7.9,7.2v0.8C18.2,20.8,17.1,21.9,15.7,21.9z
			 M10.2,12.4c-3.8,0-6.9,2.8-6.9,6.2v0.8c0,0.8,0.7,1.5,1.5,1.5h10.9c0.8,0,1.5-0.7,1.5-1.5v-0.8C17.2,15.2,14.1,12.4,10.2,12.4z"
			/>
		<path d="M10.2,9.9C8.1,9.9,6.3,8.2,6.3,6s1.8-3.9,3.9-3.9s3.9,1.8,3.9,3.9l0,0C14.2,8.2,12.4,9.9,10.2,9.9z M10.2,3.1
			C8.6,3.1,7.3,4.4,7.3,6s1.3,2.9,2.9,2.9s2.9-1.3,2.9-2.9l0,0C13.2,4.4,11.9,3.1,10.2,3.1z"/>
		<path d="M21.2,10.4h-2.5v2.5c0,0.3-0.2,0.5-0.5,0.5s-0.5-0.2-0.5-0.5v-2.5h-2.5c-0.3,0-0.5-0.2-0.5-0.5s0.2-0.5,0.5-0.5h2.5V6.9
			c0-0.3,0.2-0.5,0.5-0.5s0.5,0.2,0.5,0.5v2.5h2.5c0.3,0,0.5,0.2,0.5,0.5S21.5,10.4,21.2,10.4z"/>
	</g>
</g>
</svg>
