<?xml version="1.0" encoding="utf-8"?>
<!-- Generator: Adobe Illustrator 26.5.0, SVG Export Plug-In . SVG Version: 6.00 Build 0)  -->
<svg version="1.1" id="Calque_1" xmlns="http://www.w3.org/2000/svg" xmlns:xlink="http://www.w3.org/1999/xlink" x="0px" y="0px"
	 viewBox="0 0 24 24" style="enable-background:new 0 0 24 24;" xml:space="preserve">
<g id="User">
	<g>
		<path d="M15.1,15.9H9c-0.8,0-1.4-0.6-1.4-1.4V14c0-2.2,2-4,4.4-4s4.4,1.8,4.4,4v0.4C16.5,15.3,15.9,15.9,15.1,15.9z M12.1,10.6
			c-2.1,0-3.9,1.6-3.9,3.5v0.4c0,0.4,0.4,0.8,0.8,0.8h6.1c0.4,0,0.8-0.4,0.8-0.8V14C16,12.1,14.2,10.6,12.1,10.6z"/>
		<path d="M12.1,9.2c-1.2,0-2.2-1-2.2-2.2s1-2.2,2.2-2.2s2.2,1,2.2,2.2l0,0C14.3,8.2,13.3,9.2,12.1,9.2z M12.1,5.3
			c-0.9,0-1.6,0.7-1.6,1.6s0.7,1.6,1.6,1.6c0.9,0,1.6-0.7,1.6-1.6l0,0C13.7,6.1,13,5.3,12.1,5.3z"/>
	</g>
</g>
<g id="User_00000116924301182993638060000010933492029229734825_">
	<g>
		<path d="M17.8,11.9c-0.7,0-1.3,0.2-1.9,0.4c0,0,0.1,0,0.1,0.1c0,0,0.1,0.1,0.1,0.1c0,0.1,0,0.1,0.1,0.2c0,0,0,0,0,0c0,0,0,0,0,0
			c0.5-0.2,1.1-0.4,1.7-0.4c2.2,0,3.9,1.6,3.9,3.5v0.4c0,0.4-0.4,0.8-0.8,0.8h-6.1c-0.4,0-0.8-0.4-0.8-0.8V16c0-0.2,0-0.3,0-0.5
			c-0.1,0.1-0.2,0.1-0.3,0.1c-0.1,0-0.2,0-0.3-0.1c0,0.2-0.1,0.3-0.1,0.5v0.4c0,0.8,0.6,1.4,1.4,1.4h6.1c0.8,0,1.4-0.6,1.3-1.4V16
			C22.2,13.7,20.2,11.9,17.8,11.9z"/>
		<path d="M17.8,11.1c-1.2,0-2.2-1-2.2-2.2s1-2.2,2.2-2.2c1.2,0,2.2,1,2.2,2.2l0,0C20,10.1,19,11.1,17.8,11.1z M17.8,7.3
			c-0.9,0-1.6,0.7-1.6,1.6s0.7,1.6,1.6,1.6c0.9,0,1.6-0.7,1.6-1.6l0,0C19.4,8,18.7,7.3,17.8,7.3z"/>
	</g>
</g>
<g id="User_00000075862170196915710810000005569872623850815412_">
	<g>
		<path d="M10.4,15.6c-0.1,0-0.1,0-0.1-0.1c0,0.1,0,0.2,0,0.4v0.4c0,0.4-0.4,0.8-0.8,0.8H3.4c-0.4,0-0.8-0.4-0.8-0.8V16
			c0-1.9,1.7-3.5,3.9-3.5c0.6,0,1.1,0.1,1.6,0.3c0-0.1,0-0.1,0.1-0.2c0-0.1,0.1-0.2,0.1-0.3c-0.6-0.2-1.2-0.4-1.8-0.4
			C4,11.9,2,13.7,2,16v0.4c0,0.8,0.6,1.4,1.4,1.4h6.1c0.8,0,1.4-0.6,1.3-1.4V16c0-0.1,0-0.3,0-0.4C10.7,15.6,10.5,15.7,10.4,15.6z"
			/>
		<path d="M6.4,11.1c-1.2,0-2.2-1-2.2-2.2s1-2.2,2.2-2.2s2.2,1,2.2,2.2l0,0C8.6,10.1,7.6,11.1,6.4,11.1z M6.4,7.3
			C5.5,7.3,4.8,8,4.8,8.9s0.7,1.6,1.6,1.6S8,9.8,8,8.9l0,0C8.1,8,7.3,7.3,6.4,7.3z"/>
	</g>
</g>
</svg>
