<?xml version="1.0" encoding="utf-8"?>
<!-- Generator: Adobe Illustrator 26.5.0, SVG Export Plug-In . SVG Version: 6.00 Build 0)  -->
<svg version="1.1" id="Calque_1" xmlns="http://www.w3.org/2000/svg" xmlns:xlink="http://www.w3.org/1999/xlink" x="0px" y="0px"
	 viewBox="0 0 24 24" style="enable-background:new 0 0 24 24;" xml:space="preserve">
<g id="User">
	<g>
		<path d="M16.2,18.5H7.8c-1.1,0-1.9-0.9-1.9-1.9V16c0-3.1,2.8-5.6,6.1-5.6s6.1,2.5,6.1,5.6v0.6C18.1,17.7,17.3,18.5,16.2,18.5z
			 M12,11.2c-3,0-5.4,2.1-5.4,4.8v0.6c0,0.6,0.5,1.2,1.2,1.2h8.4c0.6,0,1.2-0.5,1.2-1.2V16C17.4,13.3,15,11.2,12,11.2z"/>
		<path d="M12,9.2c-1.7,0-3-1.4-3-3s1.4-3,3-3c1.7,0,3,1.4,3,3c0,0,0,0,0,0C15,7.9,13.7,9.2,12,9.2z M12,3.9c-1.2,0-2.3,1-2.3,2.3
			c0,1.2,1,2.3,2.3,2.3s2.3-1,2.3-2.3c0,0,0,0,0,0C14.3,5,13.2,3.9,12,3.9z"/>
	</g>
</g>
<g id="User_00000100383012754487085000000012091200555118029987_">
	<g>
		<path d="M17.9,13.1c-0.4,0-0.7,0-1.1,0.1c0,0,0.1,0,0.1,0c0.1,0,0.1,0.1,0.2,0.1c0,0,0.1,0.1,0.1,0.2c0,0,0,0.1,0,0.2l0-0.1
			c0,0,0,0,0,0c0,0,0,0,0,0.1c0,0,0,0,0,0c0,0,0,0,0,0c0,0,0,0.1,0,0.1c0,0,0,0,0,0c0.2,0,0.4,0,0.6,0c2.5,0,4.6,1.8,4.6,4.1v0.5
			c0,0.5-0.4,1-1,1h-7.1c-0.5,0-1-0.4-1-1v-0.2c0,0,0,0,0,0c-0.1,0.1-0.3,0.1-0.4,0.1c-0.1,0-0.2-0.1-0.2-0.2v0.2
			c0,0.9,0.7,1.6,1.6,1.6h7.1c0.9,0,1.6-0.7,1.6-1.6v-0.5C23.1,15.3,20.8,13.1,17.9,13.1z"/>
		<path d="M17.9,12.2c-1.4,0-2.6-1.2-2.6-2.6S16.5,7,17.9,7s2.6,1.2,2.6,2.6c0,0,0,0,0,0C20.5,11,19.3,12.2,17.9,12.2z M17.9,7.7
			c-1.1,0-1.9,0.9-1.9,1.9s0.9,1.9,1.9,1.9c1.1,0,1.9-0.9,1.9-1.9c0,0,0,0,0,0C19.8,8.5,19,7.7,17.9,7.7z"/>
	</g>
</g>
<g id="User_00000112626905797794355080000002697403070159991696_">
	<g>
		<path d="M11.3,18.2c-0.2,0.1-0.5,0.1-0.6-0.1v0.3c0,0.5-0.4,1-1,1H2.5c-0.5,0-1-0.4-1-1v-0.5c0-2.2,2-4.1,4.6-4.1
			c0.2,0,0.5,0,0.7,0.1c0,0,0,0,0-0.1c0,0,0-0.1,0-0.1c0-0.1,0-0.1,0-0.2c0-0.1,0-0.1,0.1-0.2c0,0,0.1-0.1,0.1-0.1c0,0,0,0,0,0
			c0,0,0,0,0,0c-0.3,0-0.6-0.1-0.9-0.1c-2.9,0-5.2,2.1-5.2,4.7v0.5c0,0.9,0.7,1.6,1.6,1.6h7.1c0.9,0,1.6-0.7,1.6-1.6L11.3,18.2
			C11.3,18.2,11.3,18.2,11.3,18.2z"/>
		<path d="M3.5,9.6C3.5,9.6,3.5,9.6,3.5,9.6C3.5,8.2,4.7,7,6.1,7s2.6,1.2,2.6,2.6s-1.2,2.6-2.6,2.6C4.7,12.2,3.5,11,3.5,9.6z
			 M4.2,9.6C4.2,9.6,4.2,9.6,4.2,9.6c0,1.1,0.9,1.9,1.9,1.9S8,10.6,8,9.6S7.2,7.7,6.1,7.7C5,7.7,4.2,8.5,4.2,9.6z"/>
	</g>
</g>
</svg>
