<?xml version="1.0" encoding="utf-8"?>
<!-- Generator: Adobe Illustrator 26.5.0, SVG Export Plug-In . SVG Version: 6.00 Build 0)  -->
<svg version="1.1" id="Calque_1" xmlns="http://www.w3.org/2000/svg" xmlns:xlink="http://www.w3.org/1999/xlink" x="0px" y="0px"
	 viewBox="0 0 24 24" style="enable-background:new 0 0 24 24;" xml:space="preserve">
<g id="Circle_Remove">
	<path d="M5.9,16.3c-0.5,0.5-0.5,1.3,0,1.7c0.5,0.5,1.3,0.5,1.7,0c1.4-1.4,2.9-2.9,4.3-4.3l4.3,4.3c0.5,0.5,1.3,0.5,1.7,0
		c0.5-0.5,0.5-1.3,0-1.7c-1.4-1.4-2.9-2.9-4.3-4.3c1-1,2-2,3-3c0.4-0.4,0.9-0.9,1.3-1.3c0.5-0.5,0.5-1.3,0-1.7
		c-0.5-0.5-1.3-0.5-1.7,0L12,10.3L7.7,5.9c-0.5-0.5-1.3-0.5-1.7,0s-0.5,1.3,0,1.7l4.3,4.3L5.9,16.3z"/>
</g>
</svg>
