<?xml version="1.0" encoding="utf-8"?>
<!-- Generator: Adobe Illustrator 26.5.0, SVG Export Plug-In . SVG Version: 6.00 Build 0)  -->
<svg version="1.1" id="Calque_1" xmlns="http://www.w3.org/2000/svg" xmlns:xlink="http://www.w3.org/1999/xlink" x="0px" y="0px"
	 viewBox="0 0 24 24" style="enable-background:new 0 0 24 24;" xml:space="preserve">
<style type="text/css">
	.st0{fill:none;}
</style>
<rect class="st0" width="24" height="24"/>
<rect x="-11.4" y="2.4" class="st0" width="5.9" height="5.2"/>
<rect x="-7.7" y="3.9" class="st0" width="5" height="0.4"/>
<path d="M0,0v24h24V0H0z M18,16.3c0.5,0.4,0.5,1.2,0,1.7c-0.4,0.5-1.2,0.5-1.7,0L12,13.8c-1.4,1.4-2.9,2.9-4.3,4.3
	c-0.4,0.5-1.2,0.5-1.7,0c-0.5-0.4-0.5-1.2,0-1.7l4.4-4.4L6.1,7.7C5.6,7.2,5.7,6.5,6.1,6c0.4-0.5,1.2-0.5,1.7,0l4.3,4.4L16.3,6
	c0.4-0.5,1.2-0.5,1.7,0c0.5,0.4,0.5,1.2,0,1.7c-0.4,0.4-0.9,0.9-1.3,1.3c-1,1-2,2-3,3C15.1,13.5,16.6,15,18,16.3z"/>
</svg>
